<?xml version="1.0" encoding="UTF-8"?>
<svg width="54px" height="54px" viewBox="0 0 54 54" version="1.1" xmlns="http://www.w3.org/2000/svg" xmlns:xlink="http://www.w3.org/1999/xlink">
    <!-- Generator: Sketch 42 (36781) - http://www.bohemiancoding.com/sketch -->
    <title>fingerprint_grey_2x</title>
    <desc>Created with Sketch.</desc>
    <defs></defs>
    <g id="Page-1" stroke="none" stroke-width="1" fill="none" fill-rule="evenodd" opacity="0.34">
        <g id="fingerprint_grey_2x">
            <g id="ic_fingerprint_black_48dp">
                <g id="Group">
                    <path d="M40.0725,10.0575 C39.8925,10.0575 39.72375,10.0125 39.555,9.93375 C35.24625,7.70625 31.5,6.75 27.0225,6.75 C22.55625,6.75 18.34875,7.81875 14.49,9.9225 C13.93875,10.215 13.26375,10.02375 12.96,9.4725 C12.6675,8.92125 12.85875,8.24625 13.41,7.9425 C17.60625,5.65875 22.185,4.5 27.0225,4.5 C31.815,4.5 36,5.5575 40.59,7.93125 C41.14125,8.2125 41.355,8.89875 41.07375,9.45 C40.87125,9.8325 40.4775,10.0575 40.0725,10.0575 L40.0725,10.0575 Z M7.875,21.87 C7.65,21.87 7.425,21.8025 7.2225,21.6675 C6.71625,21.3075 6.5925,20.61 6.9525,20.10375 C9.18,16.95375 12.02625,14.47875 15.40125,12.735 C22.4775,9.07875 31.5225,9.0675 38.61,12.7125 C41.97375,14.445 44.80875,16.8975 47.0475,20.025 C47.4075,20.53125 47.295,21.22875 46.78875,21.58875 C46.2825,21.94875 45.57375,21.83625 45.21375,21.33 C43.18875,18.495 40.62375,16.2675 37.58625,14.715 C31.12875,11.39625 22.8825,11.4075 16.43625,14.7375 C13.3875,16.3125 10.81125,18.55125 8.7975,21.40875 C8.5725,21.7125 8.22375,21.87 7.875,21.87 L7.875,21.87 Z M21.94875,49.01625 C21.65625,49.01625 21.375,48.90375 21.15,48.67875 C19.20375,46.71 18.14625,45.46125 16.6275,42.75 C15.075,39.9825 14.25375,36.59625 14.25375,32.97375 C14.25375,26.29125 19.96875,20.84625 27,20.84625 C34.03125,20.84625 39.74625,26.28 39.74625,32.97375 C39.74625,33.5925 39.24,34.09875 38.62125,34.09875 C38.0025,34.09875 37.49625,33.5925 37.49625,32.97375 C37.49625,27.52875 32.79375,23.09625 27,23.09625 C21.2175,23.09625 16.50375,27.52875 16.50375,32.97375 C16.50375,36.21375 17.22375,39.20625 18.585,41.6475 C20.03625,44.235 21.00375,45.34875 22.73625,47.0925 C23.175,47.53125 23.175,48.25125 22.725,48.67875 C22.5225,48.915 22.23,49.01625 21.94875,49.01625 L21.94875,49.01625 Z M38.07,44.85375 C35.3925,44.85375 33.04125,44.17875 31.095,42.8625 C27.75375,40.59 25.75125,36.9 25.75125,32.985 C25.75125,32.36625 26.2575,31.86 26.87625,31.86 C27.495,31.86 28.00125,32.36625 28.00125,32.985 C28.00125,36.14625 29.6325,39.13875 32.36625,40.995 C33.9525,42.075 35.82,42.60375 38.07,42.60375 C38.61,42.60375 39.52125,42.5475 40.42125,42.39 C41.02875,42.2775 41.61375,42.69375 41.72625,43.30125 C41.83875,43.90875 41.4225,44.49375 40.815,44.60625 C39.49875,44.8425 38.385,44.85375 38.07,44.85375 L38.07,44.85375 Z M33.53625,49.5 C33.435,49.5 33.33375,49.48875 33.24375,49.455 C29.655,48.47625 27.315,47.14875 24.885,44.73 C21.74625,41.6025 20.01375,37.42875 20.01375,32.985 C20.01375,29.32875 23.11875,26.35875 26.94375,26.35875 C30.76875,26.35875 33.87375,29.32875 33.87375,32.985 C33.87375,35.3925 35.9775,37.36125 38.55375,37.36125 C41.13,37.36125 43.23375,35.40375 43.23375,32.985 C43.23375,24.5025 35.92125,17.60625 26.9325,17.60625 C20.53125,17.60625 14.6925,21.16125 12.06,26.67375 C11.1825,28.49625 10.74375,30.6225 10.74375,32.985 C10.74375,34.74 10.90125,37.5075 12.24,41.09625 C12.45375,41.68125 12.16125,42.3225 11.57625,42.5475 C10.99125,42.76125 10.35,42.46875 10.125,41.88375 C9.0225,38.925 8.4825,36.0225 8.4825,32.985 C8.4825,30.285 9,27.8325 10.02375,25.70625 C13.0275,19.42875 19.665,15.3675 26.92125,15.3675 C37.1475,15.3675 45.4725,23.27625 45.4725,32.99625 C45.4725,36.6525 42.35625,39.6225 38.5425,39.6225 C34.72875,39.6225 31.6125,36.6525 31.6125,32.99625 C31.6125,30.58875 29.50875,28.62 26.9325,28.62 C24.35625,28.62 22.2525,30.5775 22.2525,32.99625 C22.2525,36.8325 23.74875,40.44375 26.46,43.14375 C28.58625,45.25875 30.65625,46.42875 33.82875,47.295 C34.425,47.46375 34.785,48.0825 34.61625,48.67875 C34.48125,49.17375 34.03125,49.5 33.53625,49.5 L33.53625,49.5 Z" id="Shape" fill="#000000"></path>
                    <polygon id="Shape" points="0 0 54 0 54 54 0 54"></polygon>
                </g>
            </g>
        </g>
    </g>
</svg>